{
  "accessors": [
    {
      "bufferView": 2,
      "componentType": 5126,
      "count": 60,
      "max": [
        -0.24565686285495758,
        0.038226030766963959,
        0.16565200686454773
      ],
      "min": [
        -0.39469230175018311,
        -0.0071545839309692383,
        0.01376226544380188
      ],
      "type": "VEC3"
    },
    {
      "bufferView": 2,
      "byteOffset": 720,
      "componentType": 5126,
      "count": 60,
      "max": [
        0.91457390785217285,
        0.99939388036727905,
        0.98969089984893799
      ],
      "min": [
        -0.99095851182937622,
        -0.99953776597976685,
        -0.96209007501602173
      ],
      "type": "VEC3"
    },
    {
      "bufferView": 3,
      "componentType": 5126,
      "count": 60,
      "max": [
        0.081621870398521423,
        1,
        0.99999904632568359,
        1
      ],
      "min": [
        -0.37485462427139282,
        -1,
        -0.99979627132415771,
        -1
      ],
      "type": "VEC4"
    },
    {
      "bufferView": 1,
      "componentType": 5126,
      "count": 60,
      "max": [
        0.67531388998031616,
        1
      ],
      "min": [
        0,
        0
      ],
      "type": "VEC2"
    },
    {
      "bufferView": 0,
      "componentType": 5125,
      "count": 108,
      "max": [
        59
      ],
      "min": [
        0
      ],
      "type": "SCALAR"
    },
    {
      "bufferView": 2,
      "byteOffset": 1440,
      "componentType": 5126,
      "count": 866,
      "max": [
        0.44494834542274475,
        3.0527858734130859,
        -0.44490277767181396
      ],
      "min": [
        -0.64399921894073486,
        1.6454126834869385,
        -1.6378903388977051
      ],
      "type": "VEC3"
    },
    {
      "bufferView": 2,
      "byteOffset": 11832,
      "componentType": 5126,
      "count": 866,
      "max": [
        1,
        0.99079185724258423,
        0.99526870250701904
      ],
      "min": [
        -1,
        -0.98599624633789062,
        -0.99878281354904175
      ],
      "type": "VEC3"
    },
    {
      "bufferView": 3,
      "byteOffset": 960,
      "componentType": 5126,
      "count": 866,
      "max": [
        1,
        1,
        0.9988594651222229,
        1
      ],
      "min": [
        -1,
        -1,
        -0.99995499849319458,
        -1
      ],
      "type": "VEC4"
    },
    {
      "bufferView": 1,
      "byteOffset": 480,
      "componentType": 5126,
      "count": 866,
      "max": [
        0.99515390396118164,
        0.98670041561126709
      ],
      "min": [
        0.0056201815605163574,
        0.12861448526382446
      ],
      "type": "VEC2"
    },
    {
      "bufferView": 0,
      "byteOffset": 432,
      "componentType": 5125,
      "count": 2754,
      "max": [
        865
      ],
      "min": [
        0
      ],
      "type": "SCALAR"
    },
    {
      "bufferView": 2,
      "byteOffset": 22224,
      "componentType": 5126,
      "count": 1808,
      "max": [
        0.99682050943374634,
        3.8758180141448975,
        0.77335166931152344
      ],
      "min": [
        -1.0569084882736206,
        1.1636605262756348,
        -1.4632477760314941
      ],
      "type": "VEC3"
    },
    {
      "bufferView": 2,
      "byteOffset": 43920,
      "componentType": 5126,
      "count": 1808,
      "max": [
        1,
        0.99831658601760864,
        0.99867671728134155
      ],
      "min": [
        -1,
        -0.99929732084274292,
        -0.99846166372299194
      ],
      "type": "VEC3"
    },
    {
      "bufferView": 3,
      "byteOffset": 14816,
      "componentType": 5126,
      "count": 1808,
      "max": [
        1,
        1,
        0.99999982118606567,
        1
      ],
      "min": [
        -1,
        -1,
        -0.99999719858169556,
        -1
      ],
      "type": "VEC4"
    },
    {
      "bufferView": 1,
      "byteOffset": 7408,
      "componentType": 5126,
      "count": 1808,
      "max": [
        0.99372208118438721,
        0.99071705341339111
      ],
      "min": [
        0.0105246901512146,
        0.010258913040161133
      ],
      "type": "VEC2"
    },
    {
      "bufferView": 0,
      "byteOffset": 11448,
      "componentType": 5125,
      "count": 8100,
      "max": [
        1807
      ],
      "min": [
        0
      ],
      "type": "SCALAR"
    }
  ],
  "asset": {
    "extras": {
      "author": "LisHard (https://sketchfab.com/lishard4)",
      "license": "SKETCHFAB Standard (https://sketchfab.com/licenses)",
      "source": "https://sketchfab.com/3d-models/star-catcher-ed7d83bd6eda4b51abe6a60924261e20",
      "title": "Star Catcher"
    },
    "generator": "Sketchfab-7.97.0",
    "version": "2.0"
  },
  "bufferViews": [
    {
      "buffer": 0,
      "byteLength": 43848,
      "byteOffset": 0,
      "name": "floatBufferViews",
      "target": 34963
    },
    {
      "buffer": 0,
      "byteLength": 21872,
      "byteOffset": 43848,
      "byteStride": 8,
      "name": "floatBufferViews",
      "target": 34962
    },
    {
      "buffer": 0,
      "byteLength": 65616,
      "byteOffset": 65720,
      "byteStride": 12,
      "name": "floatBufferViews",
      "target": 34962
    },
    {
      "buffer": 0,
      "byteLength": 43744,
      "byteOffset": 131336,
      "byteStride": 16,
      "name": "floatBufferViews",
      "target": 34962
    }
  ],
  "buffers": [
    {
      "byteLength": 175080,
      "uri": "scene.bin"
    }
  ],
  "images": [
    {
      "uri": "textures/Star_baseColor.jpeg"
    },
    {
      "uri": "textures/Star_metallicRoughness.png"
    },
    {
      "uri": "textures/Star_emissive.jpeg"
    },
    {
      "uri": "textures/Star_normal.png"
    },
    {
      "uri": "textures/Backpack_baseColor.jpeg"
    },
    {
      "uri": "textures/Backpack_metallicRoughness.png"
    },
    {
      "uri": "textures/Backpack_normal.png"
    },
    {
      "uri": "textures/Astronaut_baseColor.jpeg"
    },
    {
      "uri": "textures/Astronaut_metallicRoughness.png"
    },
    {
      "uri": "textures/Astronaut_normal.png"
    }
  ],
  "materials": [
    {
      "doubleSided": true,
      "emissiveFactor": [
        1,
        1,
        1
      ],
      "emissiveTexture": {
        "index": 2,
        "texCoord": 0
      },
      "name": "Star",
      "normalTexture": {
        "index": 3,
        "scale": 1,
        "texCoord": 0
      },
      "occlusionTexture": {
        "index": 1,
        "strength": 1,
        "texCoord": 0
      },
      "pbrMetallicRoughness": {
        "baseColorFactor": [
          1,
          1,
          1,
          1
        ],
        "baseColorTexture": {
          "index": 0,
          "texCoord": 0
        },
        "metallicFactor": 1,
        "metallicRoughnessTexture": {
          "index": 1,
          "texCoord": 0
        },
        "roughnessFactor": 1
      }
    },
    {
      "doubleSided": true,
      "emissiveFactor": [
        0,
        0,
        0
      ],
      "name": "Backpack",
      "normalTexture": {
        "index": 6,
        "scale": 1,
        "texCoord": 0
      },
      "occlusionTexture": {
        "index": 5,
        "strength": 1,
        "texCoord": 0
      },
      "pbrMetallicRoughness": {
        "baseColorFactor": [
          1,
          1,
          1,
          1
        ],
        "baseColorTexture": {
          "index": 4,
          "texCoord": 0
        },
        "metallicFactor": 1,
        "metallicRoughnessTexture": {
          "index": 5,
          "texCoord": 0
        },
        "roughnessFactor": 1
      }
    },
    {
      "doubleSided": true,
      "emissiveFactor": [
        0,
        0,
        0
      ],
      "name": "Astronaut",
      "normalTexture": {
        "index": 9,
        "scale": 1,
        "texCoord": 0
      },
      "occlusionTexture": {
        "index": 8,
        "strength": 1,
        "texCoord": 0
      },
      "pbrMetallicRoughness": {
        "baseColorFactor": [
          1,
          1,
          1,
          1
        ],
        "baseColorTexture": {
          "index": 7,
          "texCoord": 0
        },
        "metallicFactor": 1,
        "metallicRoughnessTexture": {
          "index": 8,
          "texCoord": 0
        },
        "roughnessFactor": 1
      }
    }
  ],
  "meshes": [
    {
      "name": "Star_geo_Star_0",
      "primitives": [
        {
          "attributes": {
            "NORMAL": 1,
            "POSITION": 0,
            "TANGENT": 2,
            "TEXCOORD_0": 3
          },
          "indices": 4,
          "material": 0,
          "mode": 4
        }
      ]
    },
    {
      "name": "Backpack_geo_Backpack_0",
      "primitives": [
        {
          "attributes": {
            "NORMAL": 6,
            "POSITION": 5,
            "TANGENT": 7,
            "TEXCOORD_0": 8
          },
          "indices": 9,
          "material": 1,
          "mode": 4
        }
      ]
    },
    {
      "name": "Astronaut_geo_Astronaut_0",
      "primitives": [
        {
          "attributes": {
            "NORMAL": 11,
            "POSITION": 10,
            "TANGENT": 12,
            "TEXCOORD_0": 13
          },
          "indices": 14,
          "material": 2,
          "mode": 4
        }
      ]
    }
  ],
  "nodes": [
    {
      "children": [
        1
      ],
      "name": "RootNode (gltf orientation matrix)",
      "rotation": [
        -0.70710678118654746,
        -0,
        -0,
        0.70710678118654757
      ]
    },
    {
      "children": [
        2
      ],
      "name": "RootNode (model correction matrix)"
    },
    {
      "children": [
        3
      ],
      "matrix": [
        1,
        0,
        0,
        0,
        0,
        0,
        1,
        0,
        0,
        -1,
        0,
        0,
        0,
        0,
        0,
        1
      ],
      "name": "StarCatcher_model.fbx"
    },
    {
      "children": [
        4,
        6,
        8
      ],
      "name": "RootNode"
    },
    {
      "children": [
        5
      ],
      "matrix": [
        0.22261866808396549,
        -5.5389811996884637,
        1.0646641457608126,
        0,
        4.8031435327295258,
        -0.37241793056113731,
        -2.9418529253083721,
        0,
        2.9569637599688954,
        1.021946035583406,
        4.6984436963463025,
        0,
        -0.28327301144599915,
        1.3361536264419556,
        0.44288960099220276,
        1
      ],
      "name": "Star_geo"
    },
    {
      "mesh": 0,
      "name": "Star_geo_Star_0"
    },
    {
      "children": [
        7
      ],
      "name": "Backpack_geo"
    },
    {
      "mesh": 1,
      "name": "Backpack_geo_Backpack_0"
    },
    {
      "children": [
        9
      ],
      "name": "Astronaut_geo"
    },
    {
      "mesh": 2,
      "name": "Astronaut_geo_Astronaut_0"
    }
  ],
  "samplers": [
    {
      "magFilter": 9729,
      "minFilter": 9987,
      "wrapS": 10497,
      "wrapT": 10497
    }
  ],
  "scene": 0,
  "scenes": [
    {
      "name": "OSG_Scene",
      "nodes": [
        0
      ]
    }
  ],
  "textures": [
    {
      "sampler": 0,
      "source": 0
    },
    {
      "sampler": 0,
      "source": 1
    },
    {
      "sampler": 0,
      "source": 2
    },
    {
      "sampler": 0,
      "source": 3
    },
    {
      "sampler": 0,
      "source": 4
    },
    {
      "sampler": 0,
      "source": 5
    },
    {
      "sampler": 0,
      "source": 6
    },
    {
      "sampler": 0,
      "source": 7
    },
    {
      "sampler": 0,
      "source": 8
    },
    {
      "sampler": 0,
      "source": 9
    }
  ]
}

